<svg version="1.1" viewBox="0 0 512 512" xmlns="http://www.w3.org/2000/svg" xmlns:xlink="http://www.w3.org/1999/xlink" class="svg-inline--fa fa-ellipsis-h fa-w-16" overflow="hidden"><style>
.MsftOfcThm_Background1_Fill {
 fill:#FFFFFF; 
}
</style>
<path d=" M 328 256 C 328 295.8 295.8 328 256 328 C 216.2 328 184 295.8 184 256 C 184 216.2 216.2 184 256 184 C 295.8 184 328 216.2 328 256 Z M 432 184 C 392.2 184 360 216.2 360 256 C 360 295.8 392.2 328 432 328 C 471.8 328 504 295.8 504 256 C 504 216.2 471.8 184 432 184 Z M 80 184 C 40.2 184 8 216.2 8 256 C 8 295.8 40.2 328 80 328 C 119.8 328 152 295.8 152 256 C 152 216.2 119.8 184 80 184 Z" stroke="none" stroke-width="1" stroke-dasharray="" stroke-dashoffset="1" fill="#FFFFFF" fill-opacity="1"/></svg>