<svg version="1.1" viewBox="0 0 576 512" xmlns="http://www.w3.org/2000/svg" xmlns:xlink="http://www.w3.org/1999/xlink" class="svg-inline--fa fa-frog fa-w-18" overflow="hidden"><style>
.MsftOfcThm_Background1_Fill {
 fill:#FFFFFF; 
}
</style>
<path d=" M 446.53 97.43 C 439.67 60.23 407.19 32 368 32 C 328.77 32 296.28 60.29 289.46 97.54 C 126.75 112.96 -0.5 250.12 0 416.98 C 0.11 451.9 29.08 480 64 480 L 368 480 C 376.84 480 384 472.84 384 464 C 384 446.33 369.67 432 352 432 L 272.51 432 L 308.31 383.67 C 332.45 347.44 318.66 295.39 274.6 277.07 C 250.71 267.14 223.05 272.42 202.36 287.95 L 169.6 312.54 C 162.54 317.85 152.51 316.45 147.19 309.35 C 141.89 302.27 143.31 292.24 150.38 286.94 L 185.16 260.85 C 222 233.19 273.44 233.23 310.29 260.85 C 321.16 269 356.16 299.91 351.09 354.06 L 469.62 480 L 560 480 C 568.84 480 576 472.84 576 464 C 576 446.33 561.67 432 544 432 L 490.37 432 L 391.85 327.32 L 546.29 240.67 C 564.64 230.378 576.001 210.979 576 189.94 C 576 168.54 564.28 148.99 545.52 138.71 C 504.96 116.49 446.53 97.43 446.53 97.43 Z M 368 136 C 354.74 136 344 125.25 344 112 C 344 98.74 354.74 88 368 88 C 381.25 88 392 98.74 392 112 C 392 125.25 381.25 136 368 136 Z" stroke="none" stroke-width="1" stroke-dasharray="" stroke-dashoffset="1" fill="#FFFFFF" fill-opacity="1"/></svg>